# xmcd
#
# Track frame offsets:
#	150
#	15955
#	30105
#	48455
#	66842
#	78912
#	92585
#	108107
#	130767
#	143907
#	158000
#	172687
#	183907
#	204240
#	229225
#	247865
#	267520
#
# Disc length: 3793 seconds
#
# Revision: 0
# Processed by: cddbd v1.5.1PL0 Copyright (c) Steve Scherf et al.
# Submitted via: EasyCDDAExtractor 5.0.4.1
#
DISCID=c30ecf11
DTITLE=Big Rhythm Combo - Too Small To Dance
DYEAR=1999
DGENRE=Blues
TTITLE0=Let It Go
TTITLE1=(I Have) Nothing Left
TTITLE2=Now Or Never
TTITLE3=Clevland Ohio
TTITLE4=Mellow Saxophone
TTITLE5=Oil Can Harry
TTITLE6=Don't Start Cry'n Now
TTITLE7=Can't Denie It
TTITLE8=Big Fat Mama's
TTITLE9=Song For Mr. Tiny
TTITLE10=Tell Me That You Love Me
TTITLE11=Too Small To Dance
TTITLE12=Susan Anne
TTITLE13=Quicksand
TTITLE14=Sure Cure
TTITLE15=Kiss You In the Morning
TTITLE16=Hug Ya Squeeze Ya
EXTD=
EXTT0=
EXTT1=
EXTT2=
EXTT3=
EXTT4=
EXTT5=
EXTT6=
EXTT7=
EXTT8=
EXTT9=
EXTT10=
EXTT11=
EXTT12=
EXTT13=
EXTT14=
EXTT15=
EXTT16=
PLAYORDER=
